<svg xmlns="http://www.w3.org/2000/svg" viewBox="0 0 71.44 65.98" class="iconSVGE"><defs><style>.certi-2{fill:#fed200}</style></defs><g id="Capa_2" data-name="Capa 2"><g id="Capa_1-2" data-name="Capa 1"><path d="M39.32 0h27.19a4.77 4.77 0 0 1 4.92 4.58c0 1.1-.36 1.54-1.47 1.55-1.53 0-3.06.05-4.59 0-.85 0-1.1.17-1.1 1.07V45a4.79 4.79 0 0 1-4.69 5.1 25.14 25.14 0 0 1-2.88 0c-.62 0-.8.15-.79.78v13.33c0 .68 0 1.33-.76 1.65s-1.18-.17-1.63-.63c-1.8-1.84-3.61-3.68-5.39-5.54-.42-.44-.63-.49-1.09 0-1.78 1.91-3.63 3.75-5.45 5.62-.44.44-.88.83-1.57.55s-.81-.89-.81-1.55V51.08c0-.79-.17-1-1-1H5.35c-2.73 0-4.56-1.23-5.23-3.51A5 5 0 0 1 0 45.48 1.25 1.25 0 0 1 1.42 44H6.1c.79 0 1-.15 1-1V5.25a5.09 5.09 0 0 1 2-4.31A5 5 0 0 1 12.23 0Zm14.22 61.32V48.1c0-1.78 0-1.77 1.81-1.73.47 0 .67.12.6.6s.15.67.66.65h2.88a2.43 2.43 0 0 0 1.63-.62c.12-.12.3-.24.2-.44s-.27-.09-.41-.1h-2c-1.92 0-1.9 0-1.8-1.93 0-.44.17-.56.59-.55h3.24c.77.05.91-.22.91-.95V9.36c0-2.28-.38-4.61.55-6.87H12.73c-2.37 0-3.17.8-3.17 3.19V43.16c0 .69.19.88.86.84 1-.05 2 0 3.06 0h23.29c1.35 0 1.28 0 1.38 1.39.06.94-.26 1.1-1.13 1.1H3.89c-.31 0-.65-.11-1 .14a2.33 2.33 0 0 0 2.22 1.06h33.3c.41 0 .92.12.82-.58s.23-.7.73-.65a3.87 3.87 0 0 0 .9 0c.69-.11.83.16.83.82v14.27c.31.05.39-.15.5-.26L46.26 57c1.11-1.15 1.53-1.15 2.66-.06 1.53 1.49 3.08 2.93 4.62 4.38ZM64.78 3.59h3.79c-1.17-1.47-2.81-1.45-3.79 0Z" style="fill: rgb(255, 255, 255);"></path><path d="M53.8 45.56c-.89-.17-1.76-.3-2.59-.52a.85.85 0 0 0-1 .34c-.5.6-1 1.17-1.56 1.74a1.2 1.2 0 0 1-2 0 19.79 19.79 0 0 1-1.51-1.67 1 1 0 0 0-1.22-.43 17.84 17.84 0 0 1-2.2.44c-1 .16-1.52-.25-1.64-1.27a5.89 5.89 0 0 1-.14-1.19c.16-1.4-.63-2-1.78-2.47-2.36-1-2.47-1.29-1.1-3.49a2.7 2.7 0 0 0 0-3.24c-1.3-2.16-1.2-2.46 1.1-3.42 1.22-.51 2-1.15 1.82-2.55a2.36 2.36 0 0 1 .07-.44c0-2.1.81-2.42 2.64-1.82A2.66 2.66 0 0 0 46 24.45c1.37-1.76 1.9-1.74 3.29 0 .91 1.17 1.85 1.67 3.26 1.06a3.63 3.63 0 0 1 .88-.19 1.3 1.3 0 0 1 1.74 1.27 7.93 7.93 0 0 1 .16 1.52 1.77 1.77 0 0 0 1.44 2 9.51 9.51 0 0 1 1.3.6 1.34 1.34 0 0 1 .66 2.13 8.8 8.8 0 0 1-.79 1.41 1.68 1.68 0 0 0 0 2.25 10.55 10.55 0 0 1 .87 1.58A1.26 1.26 0 0 1 58.2 40a1.94 1.94 0 0 1-.49.22c-1.94.46-2.65 1.77-2.53 3.66a2.37 2.37 0 0 1-.12.79 1.14 1.14 0 0 1-1.26.89ZM56 32.71c-.18-.35-.53-.4-.81-.51C54 31.71 53 31.17 53 29.56s-.12-1.64-1.67-1.2a2.15 2.15 0 0 1-2.7-.93c-.09-.12-.21-.22-.29-.34-.46-.72-.92-.84-1.43 0a2.62 2.62 0 0 1-3.5 1.2c-1-.37-1.14-.25-1.16.91 0 1.43-.44 2.52-2 2.9-.12 0-.21.12-.33.15-.74.2-.85.56-.39 1.19.88 1.2 1.2 2.38.19 3.76-.74 1-.67 1.2.55 1.61a2.51 2.51 0 0 1 1.91 2.74v.27c0 .81.22 1.1 1.11.86 1.07-.3 2.15-.65 3.08.56 1.11 1.44 1.24 1.41 2.43-.05a1.88 1.88 0 0 1 2.2-.75l.71.16c1.21.22 1.21.22 1.32-1.06v-.18a2.21 2.21 0 0 1 1.72-2.48c.17-.05.32-.18.49-.22.8-.21.9-.63.4-1.25a2.92 2.92 0 0 1 0-4 5.38 5.38 0 0 0 .36-.7ZM35.75 14.66h20.51c.76 0 1 .21.94.95-.06 1.55 0 1.55-1.58 1.55H15.3c-.84 0-1.06-.23-1-1 .07-1.46 0-1.46 1.5-1.46ZM35.72 22.05H15.21c-.76 0-1-.22-.93-1 0-1.56 0-1.56 1.55-1.56h40.39c.8 0 1 .2 1 1-.07 1.53 0 1.53-1.51 1.53ZM35.76 9.83h-8.72c-.62 0-.9-.08-.88-.81 0-1.72 0-1.72 1.75-1.72h16.44c.77 0 1 .21.93 1-.05 1.59 0 1.59-1.62 1.59ZM23.24 37.9h-6.93c-.69 0-.86-.21-.86-.87 0-1.64 0-1.64 1.66-1.64h13c.73 0 1 .17.95.94-.06 1.57 0 1.58-1.58 1.58Z" class="certi-2"></path><path d="M41.66 35.4a6 6 0 1 1 5.93 6.15 6 6 0 0 1-5.93-6.15Zm6 3.63a3.62 3.62 0 0 0-.05-7.23 3.64 3.64 0 0 0-3.56 3.65A3.57 3.57 0 0 0 47.67 39Z" class="certi-2"></path></g></g></svg>