<svg xmlns="http://www.w3.org/2000/svg" viewBox="0 0 83.84 64.81" class="iconSVG"><defs><style>.profes-1,.profes-3{fill:#fff}.profes-1{stroke:#fff;stroke-miterlimit:10;stroke-width:.8px}.profes-2{fill:#fed200}</style></defs><g id="Capa_2" data-name="Capa 2"><g id="Capa_1-2" data-name="Capa 1"><path d="M2.5 48.07V13.71a4.85 4.85 0 0 1 4.85-4.84h35.14a.84.84 0 0 0 .83-.87v-.4a.83.83 0 0 0-.83-.83H7.35A7 7 0 0 0 .4 13.71v34.36a.83.83 0 0 0 .83.83h.42a.83.83 0 0 0 .85-.83ZM74 31.11v21.23a4.85 4.85 0 0 1-4.85 4.84h-21.7a.84.84 0 0 0-.83.84v.43a.83.83 0 0 0 .83.83h21.72a7 7 0 0 0 7-6.94V31.11a.84.84 0 0 0-.84-.83h-.43a.83.83 0 0 0-.9.83Z" class="profes-1"></path><path d="m47.18 7.32.43-.26ZM73.09 21.51v-6.77a1.57 1.57 0 0 1 1-1.69 5.23 5.23 0 0 0 2.46-1.75c.44-.77 1.1-.45 1.66-.39s.73.54.73 1.06v5.2c0 .23 0 .53-.33.49s-.5.26-.58.56c-.64 2.27-1.28 4.54-1.94 6.81a2.4 2.4 0 0 0 0 1.16 4 4 0 0 0 5 3.14c1.8-.5 3.16-2.54 2.72-4.15-.63-2.35-1.31-4.69-2-7-.06-.2-.06-.49-.33-.47-.66.05-.54-.4-.54-.77v-5.05a2.87 2.87 0 0 0-3-3c-.7 0-1.23-.09-1.57-.8-.17-.35-.57-.52-.91-.72s-.45-.25-.67-.38C74 6.57 70.32 4.49 68 3.18a9.12 9.12 0 0 1-1.52-.89c-.82-.59-1.77-1-2.65-1.53a4.84 4.84 0 0 0-5.15 0c-1.66.94-3.33 1.89-5 2.86-1.21.7-4.57 2.57-6.11 3.47l-.43.26-.35.21a2.69 2.69 0 0 0 .08 4.63c.67.41 1.35.8 2.05 1.16a.88.88 0 0 1 .53.92v7.25a1 1 0 0 0 .55 1 19 19 0 0 0 4 1.9 26.84 26.84 0 0 0 3.23.79 23.44 23.44 0 0 0 8 0 31 31 0 0 0 3.22-.77 18.92 18.92 0 0 0 4.16-2 1 1 0 0 0 .48-.93Zm6.81-1.82c.35 0 .31.31.37.51.47 1.63.84 3.3 1.43 4.88a1.87 1.87 0 0 1-1.83 2.38 1.78 1.78 0 0 1-1.75-2.28c.47-1.66.95-3.32 1.42-5 .06-.18.04-.48.36-.49ZM48.22 10.6c-.9-.52-.91-1 0-1.53L59.8 2.44a2.69 2.69 0 0 1 2.84 0l10.77 6.11a3.37 3.37 0 0 1 .38.29H62.1c-.7 0-1 .16-.84.86a1.85 1.85 0 0 1 0 .47c-.08.54.12.71.68.7h11.6v.17l-.43.26c-3.46 2-6.92 3.94-10.36 5.93a2.83 2.83 0 0 1-3.05 0Zm22.26 10.79A18.85 18.85 0 0 1 63 23.48a20.32 20.32 0 0 1-10.84-2 1.1 1.1 0 0 1-.72-1.2c.05-1.78 0-3.56 0-5.46l2.45 1.39c1.57.89 3.15 1.78 4.7 2.69a4.84 4.84 0 0 0 5.21 0l7.21-4.13v5.8c.07.5-.21.65-.53.82Z" class="profes-2"></path><path d="M25.35 39.88a.86.86 0 0 0-1.21-.49 3.82 3.82 0 0 1-3.38 0 .88.88 0 0 0-1.24.57.93.93 0 0 0 .48 1.23 5.16 5.16 0 0 0 2.47.64 5.22 5.22 0 0 0 2.44-.64.94.94 0 0 0 .44-1.31ZM17.51 30.43a.89.89 0 0 0-1.05.88 16.45 16.45 0 0 0 0 2.22.87.87 0 0 0 1 .87.92.92 0 0 0 1-1v-1.94a.9.9 0 0 0-.95-1.03ZM27.53 34.4a.88.88 0 0 0 .89-.86v-2.22a1 1 0 0 0-1.93 0 17.65 17.65 0 0 0 0 2.3.88.88 0 0 0 1.04.78Z" class="profes-3"></path><path d="M44.59 62.82c0-.27-.07-.5-.08-1.49a32.71 32.71 0 0 0-.14-5.24 8.06 8.06 0 0 0-6.43-6.49c-2.71-.6-5.43-1.18-8.14-1.77-.68-.15-1.37-.41-1.38-1.19S28 45 29 44.27a10.86 10.86 0 0 0 4.79-9.14c0-.64.15-.86.83-.91a3.21 3.21 0 0 0 2.81-2.58 4.69 4.69 0 0 0-1.12-3.45 3.34 3.34 0 0 0-2-.81c-.21 0-.5.07-.5-.3V21a6.66 6.66 0 0 0-6.52-6.57h-9.73a6.67 6.67 0 0 0-6.44 5.73 24.89 24.89 0 0 0-.07 3.84 2.54 2.54 0 0 1 0 .31v2.79c0 .23-.15.27-.34.28a3.49 3.49 0 0 0-2.44 1.1 4.94 4.94 0 0 0-.85 2.84 3.25 3.25 0 0 0 3 2.92c.51 0 .66.17.68.69a11.33 11.33 0 0 0 5.06 9.55c.86.59.4 1.47.37 2.21s-.68 1-1.33 1.13c-2.44.53-4.86 1.11-7.3 1.57-2.89.55-5.22 1.84-6.59 4.55a8.09 8.09 0 0 0-.91 3.64v6.77a.44.44 0 0 0 .44.43h43.3a.44.44 0 0 0 .44-.43v-1.53ZM33.83 31.23a2 2 0 0 1 0-.42v-.68c0-.8.26-.95 1-.56a1.41 1.41 0 0 1 .55 2 1.23 1.23 0 0 1-1.28.67c-.53-.08-.18-.65-.27-1.01ZM11 30.46a2 2 0 0 1 0 .42v.6c0 .2.15.65-.14.78s-.66-.06-1-.25a1.41 1.41 0 0 1-.41-1.89c.29-.45.71-.85 1.26-.69s.23.68.29 1.03ZM31.74 50.9a1.52 1.52 0 0 1 1.4-.31c1.53.39 3.08.68 4.61 1a6.07 6.07 0 0 1 4.75 5.71c.07 1.66 0 3.33 0 5 0 .31-.09.43-.25.49H26.8c-.24-.08-.35-.25-.37-.63-.11-2.26-.27-4.52-.4-6.78 0-.21-.11-.46.17-.61a56.3 56.3 0 0 0 5.54-3.87Zm-11 11.92a.67.67 0 0 1-.14-.09c-.4-.4-.07-1.24 0-1.88.12-2.2.32-4.4.39-6.6 0-1 .85-1.42 1.38-2 .08-.09.21-.13.29 0 .51.65 1.37 1 1.41 2 .08 2.6.28 5.2.47 7.8 0 .41 0 .69-.23.81Zm-1.82-16.06c-.11-.08-.26-.17-.3-.28a.83.83 0 0 1 0-.58c.13-.26.34 0 .51 0a12 12 0 0 0 6.68 0c.17-.05.4-.27.52 0a.53.53 0 0 1-.11.7c-1.19.89-2.39 1.76-3.59 2.64l-.16.09-.35-.23Zm10.83 3.11-3.57 2.64c-.28.2-.41 0-.56-.15-.49-.58-1.19-1-1.5-1.69 0 0 .2-.19.31-.27.39-.29.79-.57 1.18-.87.79-.6 1.52-1.41 2.5-.2.31.38.94.37 1.64.54ZM13.24 36.79c-.4-2.33-.08-4.7-.17-7 0-.53.37-.44.65-.46a21.77 21.77 0 0 0 3.22-.49c.71-.15 1.1-.54.94-1.27s-.73-.79-1.35-.69c-1 .16-1.92.31-2.88.48-.44.08-.59 0-.59-.52V20.9a4.52 4.52 0 0 1 4.11-4.35c2.52-.14 5-.08 7.58-.08a26.73 26.73 0 0 1 2.83.06 4.63 4.63 0 0 1 4.24 4.61v5.83a9.74 9.74 0 0 1-4.34-3.7c-.87-1.33-1.61-1.46-2.8-.46a20.28 20.28 0 0 1-3.65 2.42c-.78.4-1.07 1-.71 1.55s1.07.54 1.67.22a19.59 19.59 0 0 0 3.32-2.14c.35-.28.56-.4.91.09a11.5 11.5 0 0 0 5.06 4c.25.1.56.13.54.54-.09 2.4.21 4.82-.17 7.21a9.38 9.38 0 0 1-18.44.13Zm4.41 11.89c.23-.26.39-.07.57.06l2.63 1.93a1.09 1.09 0 0 1-.15.25c-.57.56-1.07 1.45-1.73 1.58s-1.24-.76-1.87-1.2-1.19-.87-2-1.45a3.89 3.89 0 0 0 2.55-1.17Zm-15.1 7.73a5.81 5.81 0 0 1 4.6-4.78c1.59-.39 3.19-.68 4.78-1.07a1.16 1.16 0 0 1 1.09.23c1.63 1.21 3.21 2.52 4.98 3.58a1.56 1.56 0 0 1 .84 1.8c-.18 2-.28 4.06-.37 6.09 0 .33-.09.49-.28.56H2.5a.38.38 0 0 1-.1-.32c.06-2.03-.24-4.08.15-6.09Z" class="profes-3"></path></g></g></svg>