<svg xmlns="http://www.w3.org/2000/svg" viewBox="0 0 83.96 53.61" class="iconSVG"><defs><style>.cls-1{fill:#fff}</style></defs><g id="Capa_2" data-name="Capa 2"><g id="Capa_1-2" data-name="Capa 1"><path d="M16.33 40H5.68A2.68 2.68 0 0 1 3 37.31V16.2a2.68 2.68 0 0 1 2.68-2.68h10.7a29.4 29.4 0 0 1 1.8-3H5.68A5.69 5.69 0 0 0 0 16.2v21.11A5.69 5.69 0 0 0 5.68 43h12.43a26.6 26.6 0 0 1-1.78-3ZM78.28 10.52H65.6a29.4 29.4 0 0 1 1.8 3h10.88A2.69 2.69 0 0 1 81 16.2v21.11A2.69 2.69 0 0 1 78.28 40H67.45a26.6 26.6 0 0 1-1.78 3h12.61A5.69 5.69 0 0 0 84 37.31V16.2a5.69 5.69 0 0 0-5.72-5.68Z" class="cls-2"></path><path d="M68.7 24.71V29c-.15.05-.1.17-.11.26-.1.9-.23 1.8-.4 2.69A26.86 26.86 0 0 1 45.8 53.32a11.27 11.27 0 0 0-1.92.29h-4.19a4.42 4.42 0 0 0-1.4-.23 26.94 26.94 0 0 1-22.91-22.61 7.13 7.13 0 0 0-.3-1.77v-4.39c.14-.05.1-.17.11-.26a29.3 29.3 0 0 1 .51-3.25A26.92 26.92 0 0 1 37.93.29 6.55 6.55 0 0 0 39.69 0h4.19c0 .11.13.09.21.1a21.79 21.79 0 0 1 2.43.3 26.89 26.89 0 0 1 21.89 22.49 7.44 7.44 0 0 0 .29 1.82Zm-5.12.52h1.57c.3 0 .35-.09.32-.35-.09-.62-.13-1.25-.23-1.87A23.48 23.48 0 0 0 60 11.54c-.21-.25-.32-.29-.55 0-.65.69-1.33 1.35-2 2a1.58 1.58 0 1 1-2.22-2.22c.66-.67 1.32-1.35 2-2 .25-.23.24-.36 0-.55s-.65-.53-1-.78a23.51 23.51 0 0 0-12.31-4.76c-.44 0-.48.1-.47.46v2.78a1.58 1.58 0 1 1-3.14 0V3.54c0-.27 0-.38-.34-.33s-.72.07-1.09.11a23.56 23.56 0 0 0-12.3 5.42c-.24.2-.22.31 0 .52.67.64 1.31 1.3 2 2a1.59 1.59 0 1 1-2.25 2.2c-.65-.65-1.31-1.3-1.95-2-.2-.2-.3-.21-.49 0a23.55 23.55 0 0 0-5.55 13.38c0 .32.06.38.35.37h3a1.57 1.57 0 1 1 0 3.13h-1.94c-.47 0-1.12-.16-1.36.08s0 .91 0 1.38a23.43 23.43 0 0 0 5.41 12.25c.23.29.35.21.55 0 .66-.68 1.33-1.34 2-2a1.58 1.58 0 1 1 2.22 2.23c-.67.68-1.35 1.36-2 2-.18.18-.26.28 0 .48A23.52 23.52 0 0 0 40 50.38c.29 0 .38 0 .38-.34v-2.93a1.57 1.57 0 1 1 3.14 0v2.93c0 .29.06.38.38.35a23.94 23.94 0 0 0 3-.44 23.59 23.59 0 0 0 10.3-5.08c.27-.22.24-.33 0-.55-.68-.65-1.34-1.32-2-2a1.58 1.58 0 1 1 2.2-2.25c.66.65 1.32 1.3 2 2 .26.28.4.32.66 0a28.9 28.9 0 0 0 1.85-2.54 23.57 23.57 0 0 0 3.62-10.72c0-.34-.06-.41-.38-.4h-3a1.57 1.57 0 0 1 0-3.13c.42-.06.93-.05 1.43-.05Z" style="fill: rgb(254, 210, 0);"></path><path d="M43.46 19.32v7.27a1.6 1.6 0 0 1-1.19 1.75q-5.09 2-10.18 3.89A1.58 1.58 0 1 1 31 29.3c3-1.14 5.94-2.29 8.92-3.41a.55.55 0 0 0 .43-.62V11.98a1.59 1.59 0 0 1 1.34-1.72 1.57 1.57 0 0 1 1.8 1.63c-.02 2.47-.03 4.95-.03 7.43Z" class="cls-2"></path></g></g></svg>